<svg xmlns="http://www.w3.org/2000/svg" viewBox="0 0 51.0 38.0"><defs>
<linearGradient id="ah" gradientUnits="userSpaceOnUse" x1="0" y1="1" x2="0" y2="37"><stop offset="0" stop-color="#0b3a7c"/><stop offset=".27" stop-color="#0d3f86"/><stop offset=".275" stop-color="#079fe4"/><stop offset=".72" stop-color="#079fe4"/><stop offset=".725" stop-color="#0298cf"/><stop offset="1" stop-color="#0294c8"/></linearGradient>
<linearGradient id="ae" gradientUnits="userSpaceOnUse" x1="1" y1="0" x2="31" y2="0"><stop offset="0" stop-color="#3f93d8"/><stop offset=".6" stop-color="#4fb0ee"/><stop offset="1" stop-color="#3a80c9"/></linearGradient>
</defs>
<path fill="url(#ah)" fill-rule="evenodd" d="M32.5 1a18 18 0 1 1 0 36a18 18 0 1 1 0-36zM35.5 8.6a10.4 10.4 0 1 0 0 20.8a10.4 10.4 0 1 0 0-20.8z"/>
<path fill="url(#ae)" stroke="#fff" stroke-width="1.3" stroke-linejoin="round" paint-order="stroke" d="M1 1H21V8H7V15.5H25V9H31V14.8L27.6 19L31 23.2V29H25V22H7V30H21V37H1Z"/></svg>
